inDegrees=no
num_controls=7
num_derivatives=13
num_iterations=249
num_multipliers=7
num_parameters=0
num_slacks=7
num_states=26
objective=0.509558
objective_accelerations=0.041073
objective_balance=0.003519
objective_effort=0.029605
objective_height=0.322787
objective_ligament=0.112574
solver_duration=3205.373075
status=Solve_Succeeded
success=true
DataType=double
version=3
OpenSimVersion=4.5
endheader
time	/jointset/ground_pelvis/pelvis_tilt/value	/jointset/ground_pelvis/pelvis_tx/value	/jointset/ground_pelvis/pelvis_ty/value	/jointset/hip_l/hip_flexion_l/value	/jointset/hip_l/hip_adduction_l/value	/jointset/hip_l/hip_rotation_l/value	/jointset/back/lumbar_extension/value	/jointset/patellofemoral_l/patellar_flexion_l/value	/jointset/knee_l/knee_flexion_l/value	/jointset/knee_l/knee_adduction_l/value	/jointset/knee_l/knee_rotation_l/value	/jointset/ankle_l/ankle_angle_l/value	/jointset/subtalar_l/subtalar_angle_l/value	/jointset/ground_pelvis/pelvis_tilt/speed	/jointset/ground_pelvis/pelvis_tx/speed	/jointset/ground_pelvis/pelvis_ty/speed	/jointset/hip_l/hip_flexion_l/speed	/jointset/hip_l/hip_adduction_l/speed	/jointset/hip_l/hip_rotation_l/speed	/jointset/back/lumbar_extension/speed	/jointset/patellofemoral_l/patellar_flexion_l/speed	/jointset/knee_l/knee_flexion_l/speed	/jointset/knee_l/knee_adduction_l/speed	/jointset/knee_l/knee_rotation_l/speed	/jointset/ankle_l/ankle_angle_l/speed	/jointset/subtalar_l/subtalar_angle_l/speed	/forceset/tau_hip_flexion_l	/forceset/tau_hip_adduction_l	/forceset/tau_hip_rotation_l	/forceset/tau_knee_flexion_l	/forceset/tau_ankle_angle_l	/forceset/tau_subtalar_angle_l	/forceset/tau_lumbar_extension	lambda_cid13_p0	lambda_cid13_p1	lambda_cid13_p2	lambda_cid13_p3	lambda_cid13_p4	lambda_cid13_p5	lambda_cid14_p0	/jointset/ground_pelvis/pelvis_tilt/accel	/jointset/ground_pelvis/pelvis_tx/accel	/jointset/ground_pelvis/pelvis_ty/accel	/jointset/hip_l/hip_flexion_l/accel	/jointset/hip_l/hip_adduction_l/accel	/jointset/hip_l/hip_rotation_l/accel	/jointset/back/lumbar_extension/accel	/jointset/patellofemoral_l/patellar_flexion_l/accel	/jointset/knee_l/knee_flexion_l/accel	/jointset/knee_l/knee_adduction_l/accel	/jointset/knee_l/knee_rotation_l/accel	/jointset/ankle_l/ankle_angle_l/accel	/jointset/subtalar_l/subtalar_angle_l/accel	gamma_cid13_p0	gamma_cid13_p1	gamma_cid13_p2	gamma_cid13_p3	gamma_cid13_p4	gamma_cid13_p5	gamma_cid14_p0
0.5	-0.1163525358437361	-0.05059006572281476	0.8280541047895226	0.8774095253052949	-0.3112290278020486	-0.1398208583737312	-0.7805465750787302	0.7826309560715444	0.7826309560716228	-0.07723460691088357	-0.1724196788762102	0.08109816595039708	0.01046210839194012	-0.227311658206261	-0.1643361900316412	-0.3468766123463239	1.505133659400311	-0.1113842578708087	0.5506682131786195	-0.8591212522448822	1.538435050439127	1.538435050439019	-0.01101981198186359	0.01387414839017933	0.3289664228059269	-0.0122969583454967	-0.2820947578886035	0.04583445977547886	-0.007316264922891421	-0.1955960726982419	0.1001507855169514	0.03468575801428241	0.3289995705087153	-12.10076310073689	-13.97312141772953	2.94744530059662	-8.554852211830577	-696.0405191688217	-59.77989850029904	-15.05908897807847	0.4332537413121244	0.6591604182683982	-0.2236798230858464	-1.116859342418567	0.4216361572763795	-0.02250410493910851	1.694851596740274	-0.4718968215956826	-0.4718968215956806	-0.05107628610424216	0.007127752380593062	0.3516736629265495	0.559838487740423	-1.752411117715345e-07	-4.197171984306088e-07	7.133066418666287e-07	2.297811952818652e-08	-1.709190206081321e-07	-8.612763726784079e-08	-1.551600574695132e-07
0.51	-0.1186038321603494	-0.05220042679021092	0.8245749764740039	0.8924022187275898	-0.3123223778654439	-0.134316210669744	-0.789051956446379	0.7979881873000663	0.7979881872999811	-0.07734897642656439	-0.1722812796869799	0.084403924851678	0.01036601409169738	-0.222932681283263	-0.1577327497037475	-0.3488663517531838	1.493156124915112	-0.1072792630410835	0.5501375117414141	-0.8418419363836518	1.532691518977333	1.532691518977324	-0.01185628729615663	0.01377990328066582	0.3320726652112561	-0.006948218819221809	-0.2890872313711812	0.04652312663801558	-0.007341994023304109	-0.1977775757434956	0.09856106068515616	0.03510442356815572	0.3356398980872319	-12.85976997646114	-13.9800542669074	2.900579526883967	-8.231121637308345	-700.3975752348302	-59.61728189830806	-14.49059598216368	0.4424402511323655	0.6614318344151281	-0.1742495486935745	-1.275557054808495	0.4058594171528248	-0.08706849018435313	1.76143431601903	-0.6735020849311906	-0.6735020849164215	-0.1003098598048432	-0.02142245706005121	0.2731785979392807	0.5184254374480536	-1.725656118236736e-07	-3.795585100479303e-07	7.100840850509305e-07	2.801467046535932e-08	-1.647394607166118e-07	-6.766828553909605e-08	-1.50649968871202e-07
0.52	-0.1208108945910629	-0.05374465425545511	0.8210784250545748	0.9072676654943864	-0.3133744923262701	-0.128820613045548	-0.7973811521083751	0.81327839905868	0.8132783990584297	-0.07747178603653582	-0.1721445673117319	0.08773736199073319	0.01032261393719296	-0.2184648810267183	-0.1511094696012442	-0.3503612331283634	1.479684328300396	-0.1031371373580739	0.5488581972212857	-0.8238841111142384	1.525031156457138	1.525031156457227	-0.01270783083896807	0.01353678559344305	0.3345020703607123	-0.001758129197866146	-0.296079704853763	0.04721179350055599	-0.007367723123716876	-0.1999590787887501	0.09697133585336233	0.03552308912203354	0.3422802256657442	-13.61811975534865	-13.98852826894844	2.855589181619623	-7.961665118705299	-704.7847220043052	-59.4916326648326	-13.91607942734099	0.4510184080214618	0.6631283731903397	-0.124708216749812	-1.415711768321803	0.4290623279332678	-0.1722267215237371	1.83055347837688	-0.8552630332760963	-0.8552630332760961	-0.05408993180791836	-0.02264676316125548	0.216306211751999	0.5281085067565926	-1.696513029759958e-07	-3.344410705636851e-07	7.054567165913092e-07	3.478533246088484e-08	-1.601735983512503e-07	-4.756992036066714e-08	-1.452272157156099e-07
0.53	-0.122973059481525	-0.05522264788842498	0.8175695344433702	0.9219907816036417	-0.3143851369240188	-0.1233416019480951	-0.8055275102034397	0.8284817734791865	0.8284817734789748	-0.07760350249031134	-0.1720110504722051	0.09109132421145345	0.01033003502135662	-0.2139767923431065	-0.1444957393628886	-0.3513199403961978	1.464672244132381	-0.09900562702819828	0.5468023208420072	-0.8052873779994631	1.515254842675932	1.515254842675954	-0.0136742402854204	0.01312464802999781	0.3361360306598598	0.003179141562577348	-0.3027752208441256	0.04772882100268952	-0.007387662785364988	-0.2026775263612626	0.09559467379702867	0.03581217644256368	0.3486998660862516	-14.3447916638421	-13.94073199171292	2.795297798858712	-7.518039097260913	-709.5410133002619	-59.36005020348097	-13.33649211519571	0.4463820123585949	0.6595306620345992	-0.06694122939715595	-1.583975585052695	0.403062958265392	-0.2436543920908462	1.889252712923204	-1.097119820065529	-1.097119820075523	-0.1237683371312195	-0.0566442569569734	0.1137752349601884	0.4670236488104814	-1.669773241775373e-07	-2.886233670494664e-07	7.037542941675378e-07	4.150680610627047e-08	-1.545312804767921e-07	-2.848120021921836e-08	-1.401205945841876e-07
